<?xml version="1.0" encoding="UTF-8"?>
<!-- Created with Inkscape (http://www.inkscape.org/) -->
<svg width="65.803mm" height="18.271mm" version="1.1" viewBox="0 0 65.803 18.271" xmlns="http://www.w3.org/2000/svg">
 <g transform="translate(-77.783 -215.62)">
  <path d="m0 0"/>
  <g transform="translate(15.943 88.272)" fill="none" stroke="#fefefe">
   <circle transform="rotate(-9.5026)" cx="57.133" cy="147.96" r=".86301" stroke-linecap="round" stroke-linejoin="round" stroke-width=".60388"/>
   <ellipse transform="rotate(-9.5026)" cx="53.324" cy="153.41" rx=".41541" ry=".41541" stroke-linecap="round" stroke-linejoin="round" stroke-width=".29067"/>
   <path d="m80.33 137.48-2.1865 4.6276" stroke-width=".51761"/>
   <ellipse transform="rotate(-65.437)" cx="-93.311" cy="133.37" rx=".41541" ry=".41541" stroke-linecap="round" stroke-linejoin="round" stroke-width=".29067"/>
   <path d="m81.296 137.49 1.0792 2.411" stroke-width=".51761"/>
  </g>
  <g transform="matrix(0 .86268 -.86268 0 180.11 149.1)" fill="none" stroke="#fff">
   <circle transform="rotate(-9.5026)" cx="68.206" cy="123.65" r="1.0004" stroke-linecap="round" stroke-linejoin="round" stroke-width=".6"/>
   <g stroke-width=".6">
    <path d="m87.682 107.19 3e-3 2.5804"/>
    <path d="m84.134 110.68 2.5804-3e-3"/>
    <path d="m88.68 110.66 2.5804-3e-3"/>
   </g>
   <ellipse transform="rotate(-9.5026)" cx="64.316" cy="122.98" rx=".48153" ry=".48153" stroke-linecap="round" stroke-linejoin="round" stroke-width=".33694"/>
   <ellipse transform="rotate(-9.5026)" cx="72.034" cy="124.32" rx=".48153" ry=".48153" stroke-linecap="round" stroke-linejoin="round" stroke-width=".33694"/>
   <g stroke-width=".6">
    <path d="m83.736 111.12 3e-3 4.2776"/>
    <path d="m87.682 111.82 3e-3 5.6938"/>
    <path d="m91.568 111.2 3e-3 2.4032"/>
   </g>
   <g stroke-linecap="round" stroke-linejoin="round" stroke-width=".33694">
    <ellipse transform="rotate(-9.5026)" cx="63.462" cy="128.09" rx=".48153" ry=".48153"/>
    <ellipse transform="rotate(-9.5026)" cx="66.991" cy="130.82" rx=".48153" ry=".48153"/>
    <ellipse transform="rotate(-9.5026)" cx="71.506" cy="127.62" rx=".48153" ry=".48153"/>
   </g>
  </g>
  <path d="m135.02 224.56c-0.41999 0-0.81572 0.0849-1.187 0.25528-0.3652 0.17043-0.6874 0.40507-0.96738 0.70332-0.27999 0.29824-0.49959 0.64512-0.65784 1.0408-0.15826 0.39563-0.2372 0.81876-0.2372 1.2692 0 0.43824 0.0789 0.84902 0.2372 1.2325 0.16434 0.38347 0.38985 0.72122 0.67592 1.0134 0.29216 0.29216 0.6267 0.52037 1.0041 0.68471 0.37737 0.16434 0.78224 0.2465 1.2144 0.2465 0.4139 0 0.80372-0.0822 1.1689-0.2465 0.3652-0.17043 0.6874-0.40455 0.96739-0.7028s0.49907-0.63921 0.65732-1.0227c0.15825-0.38955 0.23771-0.80354 0.23771-1.2418 0-0.45041-0.0822-0.87032-0.2465-1.2599-0.15825-0.39564-0.38055-0.73982-0.66662-1.032-0.27999-0.29825-0.60861-0.52916-0.98599-0.6935-0.37737-0.16434-0.78224-0.24649-1.2144-0.24649zm-11.54 0.0274c-0.067 0-0.12173 9e-3 -0.16433 0.0274-0.0365 0.0183-0.0639 0.0483-0.0822 0.0909-0.0183 0.0365-0.0274 0.0886-0.0274 0.15555v5.8157c0 0.067 6e-3 0.12172 0.0181 0.16433 0.0183 0.0426 0.0456 0.0732 0.0822 0.0915 0.0426 0.0182 0.0979 0.0274 0.16485 0.0274 0.067 0 0.11851-9e-3 0.15503-0.0274 0.0426-0.0183 0.0732-0.0457 0.0915-0.0822 0.0183-0.0426 0.0274-0.0974 0.0274-0.16433v-2.3466c0.0365-0.38955 0.17936-0.69991 0.42891-0.93121 0.24956-0.23129 0.57818-0.34675 0.98599-0.34675 0.29825 0 0.54471 0.0607 0.73949 0.18242 0.19477 0.12174 0.34083 0.29196 0.43821 0.51108 0.0974 0.21912 0.14625 0.47793 0.14625 0.77618v2.1456c0 0.067 6e-3 0.12172 0.0181 0.16433 0.0183 0.0365 0.0456 0.0639 0.0822 0.0822 0.0426 0.0183 0.0974 0.0274 0.16433 0.0274 0.067 0 0.11903-9e-3 0.15555-0.0274 0.0365-0.0122 0.0607-0.0363 0.0729-0.0729 0.0183-0.0426 0.0274-0.0974 0.0274-0.16433v-2.1456c0-0.41389-0.0822-0.76399-0.2465-1.0501-0.15825-0.29216-0.37463-0.51446-0.64854-0.66663-0.2739-0.15825-0.58427-0.23719-0.93121-0.23719-0.34085 0-0.62653 0.0762-0.85782 0.22841-0.22521 0.14608-0.41691 0.3163-0.57516 0.51108v-2.4562c0-0.073-9e-3 -0.12782-0.0274-0.16434-0.0122-0.0426-0.0396-0.0727-0.0822-0.0909-0.0365-0.0183-0.0886-0.0274-0.15554-0.0274zm7.2678 0c-0.0669 0-0.12172 9e-3 -0.16433 0.0274-0.0365 0.0183-0.0639 0.0483-0.0822 0.0909-0.0183 0.0365-0.0274 0.0886-0.0274 0.15555v5.8157c0 0.067 6e-3 0.12172 0.0181 0.16433 0.0183 0.0426 0.0456 0.0732 0.0822 0.0915 0.0426 0.0182 0.0974 0.0274 0.16433 0.0274 0.0669 0 0.11851-9e-3 0.15503-0.0274 0.0426-0.0183 0.0732-0.0457 0.0915-0.0822 0.0183-0.0426 0.0274-0.0974 0.0274-0.16433v-5.8162c0-0.073-9e-3 -0.12782-0.0274-0.16434-0.0122-0.0426-0.0395-0.0727-0.0822-0.0909-0.0365-0.0183-0.0881-0.0274-0.15503-0.0274zm7.7788 0c-0.0609 0-0.11294 9e-3 -0.15554 0.0274-0.0365 0.0183-0.0639 0.0483-0.0822 0.0909-0.0122 0.0365-0.0181 0.0913-0.0181 0.16434 0 0.0669 9e-3 0.12172 0.0274 0.16433 0.0183 0.0365 0.0456 0.0639 0.0822 0.0822 0.0426 0.0122 0.0974 0.0186 0.16433 0.0186h2.127v5.5418c0 0.067 6e-3 0.12172 0.0186 0.16433 0.0183 0.0426 0.0456 0.0732 0.0822 0.0915 0.0426 0.0182 0.0974 0.0274 0.16433 0.0274 0.067 0 0.11851-9e-3 0.15503-0.0274 0.0426-0.0183 0.0732-0.0457 0.0915-0.0822 0.0183-0.0426 0.0274-0.0974 0.0274-0.16433v-5.5511h2.0996c0.0669 0 0.11903-6e-3 0.15555-0.0186 0.0426-0.0183 0.0727-0.0456 0.091-0.0822 0.0183-0.0426 0.0274-0.0974 0.0274-0.16433 0-0.073-9e-3 -0.12782-0.0274-0.16434-0.0122-0.0426-0.0363-0.0727-0.0729-0.0909-0.0365-0.0183-0.0881-0.0274-0.15503-0.0274zm-3.4696 0.52038c0.34694 0 0.67235 0.0698 0.97668 0.2098 0.30434 0.14 0.57228 0.33491 0.80357 0.58447 0.23738 0.24346 0.41995 0.52644 0.54777 0.84904 0.13391 0.32259 0.20102 0.66626 0.20102 1.0315 0 0.37129-0.0671 0.71817-0.20102 1.0408-0.12782 0.3226-0.30717 0.60879-0.53847 0.85835-0.23129 0.24347-0.50245 0.43516-0.81287 0.57516-0.30433 0.13391-0.63296 0.20102-0.98598 0.20102-0.34695 0-0.67235-0.0698-0.97669-0.20981-0.30433-0.13999-0.57227-0.33169-0.80357-0.57516-0.23129-0.24346-0.41386-0.52696-0.54777-0.84956-0.1339-0.32259-0.20102-0.66626-0.20102-1.0315 0-0.37129 0.0639-0.71817 0.19172-1.0408 0.13391-0.32868 0.31648-0.61488 0.54777-0.85835 0.23738-0.24346 0.50854-0.43516 0.81287-0.57516 0.31042-0.13999 0.63905-0.2098 0.98599-0.2098zm-14.307 9e-3c-0.0609 0-0.10973 9e-3 -0.14625 0.0274-0.0365 0.0183-0.0639 0.0489-0.0822 0.0915-0.0122 0.0365-0.0181 0.0913-0.0181 0.16433v1.3364l-0.56637-0.0124c-0.0974 0-0.1672 0.0183-0.20981 0.0548-0.0426 0.0365-0.0641 0.10041-0.0641 0.19172 0 0.0974 0.0183 0.1672 0.0548 0.2098 0.0365 0.0365 0.10363 0.0548 0.20102 0.0548l0.58446-0.0129v2.3776c0 0.25564 0.0242 0.47203 0.0729 0.64854 0.0487 0.17043 0.13085 0.30736 0.2465 0.41083s0.26492 0.1792 0.44752 0.22789c0.18869 0.0487 0.41959 0.0734 0.6935 0.0734 0.0669 0 0.11902-9e-3 0.15554-0.0274 0.0426-0.0122 0.0727-0.0369 0.0909-0.0734 0.0183-0.0365 0.0274-0.0881 0.0274-0.15503 0-0.067-9e-3 -0.11851-0.0274-0.15503-0.0183-0.0365-0.0483-0.0612-0.0909-0.0734-0.0365-0.0183-0.0913-0.0274-0.16433-0.0274-0.17043 0-0.31648-6e-3 -0.43821-0.0181-0.12174-0.0183-0.21945-0.0548-0.29249-0.10955-0.067-0.0548-0.11851-0.13694-0.15503-0.2465-0.0304-0.11565-0.0455-0.26762-0.0455-0.4563v-2.3978l1.0134 0.0145c0.0669 0 0.11851-6e-3 0.15503-0.0181 0.0365-0.0183 0.0607-0.0456 0.0729-0.0822 0.0183-0.0426 0.0274-0.0974 0.0274-0.16433 0-0.0609-9e-3 -0.10973-0.0274-0.14625-0.0183-0.0365-0.0483-0.0607-0.091-0.0729-0.0365-0.0183-0.0886-0.0274-0.15555-0.0274l-0.99477 0.014v-1.3653c0-0.0669-9e-3 -0.11851-0.0274-0.15503-0.0183-0.0365-0.0489-0.0612-0.0915-0.0734-0.0365-0.0183-0.0881-0.0274-0.15503-0.0274zm-11.376 1.4702c-0.12782 0-0.26205 0.0182-0.40204 0.0548-0.13391 0.0365-0.26493 0.0913-0.39275 0.16433-0.12782 0.067-0.24327 0.14912-0.34674 0.2465-0.0974 0.0974-0.17363 0.21015-0.22842 0.33797v-0.54777c0-0.0852-0.0183-0.14642-0.0548-0.18294-0.0365-0.0365-0.0972-0.0548-0.18242-0.0548-0.0609 0-0.11242 9e-3 -0.15503 0.0274-0.0365 0.0122-0.0639 0.0369-0.0822 0.0734-0.0122 0.0304-0.0186 0.0761-0.0186 0.13695v3.8344c0 0.067 6e-3 0.12172 0.0186 0.16433 0.0183 0.0365 0.0456 0.0639 0.0822 0.0822 0.0365 0.0183 0.0849 0.0274 0.14573 0.0274 0.067 0 0.11903-9e-3 0.15554-0.0274 0.0426-0.0122 0.07-0.0363 0.0822-0.0729 0.0183-0.0426 0.0274-0.0974 0.0274-0.16433v-2.0634c0-0.31042 0.0575-0.58158 0.17311-0.81287 0.11565-0.23738 0.27405-0.41995 0.47491-0.54777 0.20086-0.13391 0.42907-0.20051 0.68472-0.20051 0.24346 0 0.44159 0.0666 0.59376 0.20051 0.15216 0.12782 0.2644 0.31039 0.33744 0.54777 0.0791 0.23129 0.11886 0.50245 0.11886 0.81287v2.0541c0 0.0487 3e-3 0.0911 9e-3 0.12764 0.0122 0.0365 0.0304 0.0639 0.0548 0.0822 0.0243 0.0243 0.0544 0.0426 0.0909 0.0548 0.0487 0.0243 0.10076 0.0308 0.15554 0.0186 0.0609-6e-3 0.10921-0.0335 0.14573-0.0822 0.0426-0.0426 0.0641-0.10381 0.0641-0.18294v-2.0722c0-0.31042 0.058-0.58158 0.17363-0.81287 0.11565-0.23738 0.27353-0.41995 0.47439-0.54777 0.20086-0.13391 0.42959-0.20051 0.68523-0.20051 0.24347 0 0.44108 0.0666 0.59325 0.20051 0.15216 0.12782 0.26492 0.31039 0.33796 0.54777 0.0791 0.23129 0.11834 0.50245 0.11834 0.81287v2.0541c0 0.067 6e-3 0.12172 0.0186 0.16433 0.0182 0.0365 0.0456 0.0639 0.0822 0.0822 0.0426 0.0183 0.0974 0.0274 0.16433 0.0274 0.067 0 0.11851-9e-3 0.15503-0.0274 0.0365-0.0122 0.0607-0.0363 0.0729-0.0729 0.0183-0.0426 0.0274-0.0974 0.0274-0.16433v-2.0547c0-0.41389-0.0575-0.7726-0.17311-1.0769-0.11565-0.30434-0.28909-0.54168-0.52038-0.7121-0.22521-0.17043-0.51141-0.2558-0.85835-0.2558-0.22521 0-0.42925 0.0397-0.61185 0.11885-0.17651 0.073-0.33761 0.1885-0.48369 0.34675-0.13999 0.15217-0.28014 0.34978-0.42013 0.59325-0.0913-0.22521-0.20406-0.41369-0.33796-0.56586-0.13391-0.15825-0.28909-0.28014-0.46561-0.36535-0.17043-0.0852-0.36482-0.12764-0.58394-0.12764zm-8.4181 0.0181c-0.067 0-0.12173 9e-3 -0.16433 0.0274-0.0365 0.0122-0.0639 0.0396-0.0822 0.0822-0.0183 0.0365-0.0274 0.0886-0.0274 0.15554 0 0.067 9e-3 0.12173 0.0274 0.16433 0.0183 0.0365 0.0456 0.0639 0.0822 0.0822 0.0426 0.0122 0.0974 0.0181 0.16433 0.0181h2.6112l-3.004 3.3414c-0.0304 0.0304-0.0546 0.0642-0.0729 0.10077-0.0122 0.0365-0.0181 0.0822-0.0181 0.13694 0 0.0913 0.0182 0.1552 0.0548 0.19172 0.0365 0.0365 0.10312 0.0548 0.20051 0.0548h3.4602c0.0669 0 0.11903-9e-3 0.15555-0.0274 0.0426-0.0122 0.0727-0.0369 0.091-0.0734 0.0183-0.0426 0.0274-0.0942 0.0274-0.15503 0-0.067-9e-3 -0.11851-0.0274-0.15503-0.0122-0.0426-0.0396-0.0732-0.0822-0.0915-0.0365-0.0183-0.0881-0.0274-0.15503-0.0274h-2.9218l3.004-3.3962c0.0183-0.0183 0.0306-0.0429 0.0367-0.0734 0.0122-0.0304 0.0181-0.0669 0.0181-0.10955 0-0.0913-0.0183-0.1552-0.0548-0.19172-0.0365-0.0365-0.10364-0.0548-0.20102-0.0548zm4.8938 0c-0.067 0-0.12173 9e-3 -0.16434 0.0274-0.0365 0.0122-0.0639 0.0396-0.0822 0.0822-0.0122 0.0365-0.0186 0.0886-0.0186 0.15554v3.8163c0 0.0669 6e-3 0.12172 0.0186 0.16433 0.0183 0.0365 0.0456 0.0639 0.0822 0.0822 0.0426 0.0182 0.0942 0.0274 0.15503 0.0274 0.067 0 0.11903-9e-3 0.15555-0.0274 0.0426-0.0122 0.07-0.0369 0.0822-0.0734 0.0183-0.0426 0.0274-0.0974 0.0274-0.16434v-3.807c0-0.073-9e-3 -0.12781-0.0274-0.16433-0.0122-0.0426-0.0369-0.0732-0.0734-0.0915s-0.0881-0.0274-0.15502-0.0274zm9.3767 0c-0.0609 0-0.11294 9e-3 -0.15554 0.0274-0.0365 0.0122-0.0639 0.0396-0.0822 0.0822-0.0122 0.0365-0.0181 0.0886-0.0181 0.15554v2.1451c0 0.31042 0.0456 0.58749 0.13695 0.83096 0.0913 0.23738 0.2191 0.44142 0.38344 0.61185 0.16434 0.16434 0.35603 0.29214 0.57516 0.38344 0.21912 0.0852 0.45967 0.12764 0.7214 0.12764 0.17651 0 0.33761-0.021 0.48369-0.0636s0.27709-0.1006 0.39274-0.17364c0.12174-0.0791 0.23128-0.16449 0.32866-0.25579 0.0974-0.0974 0.18546-0.1978 0.26459-0.30128v0.53899c0 0.0426 3e-3 0.0791 9e-3 0.10955 0.0122 0.0304 0.0272 0.0546 0.0455 0.0729s0.043 0.0306 0.0734 0.0367c0.0304 0.0122 0.067 0.0181 0.10956 0.0181 0.067 0 0.11851-9e-3 0.15503-0.0274 0.0365-0.0122 0.0607-0.0363 0.0729-0.0729 0.0183-0.0365 0.0274-0.0822 0.0274-0.13694v-3.8349c0-0.0669-9e-3 -0.11851-0.0274-0.15503-0.0122-0.0426-0.0363-0.0732-0.0729-0.0915-0.0365-0.0183-0.0854-0.0274-0.14625-0.0274-0.0669 0-0.12172 9e-3 -0.16433 0.0274-0.0365 0.0122-0.0639 0.0396-0.0822 0.0822-0.0122 0.0365-0.0181 0.0886-0.0181 0.15554v2.1544c0 0.29217-0.058 0.55098-0.17363 0.77618-0.11565 0.21913-0.27996 0.38935-0.493 0.51108-0.21303 0.12174-0.46863 0.18294-0.76687 0.18294-0.29217 0-0.53542-0.0612-0.73019-0.18294-0.19478-0.12173-0.34083-0.29195-0.43822-0.51108-0.0974-0.2252-0.14624-0.48401-0.14624-0.77618v-2.1456c0-0.0669-9e-3 -0.11851-0.0274-0.15503-0.0122-0.0426-0.0396-0.0732-0.0822-0.0915-0.0365-0.0183-0.0881-0.0274-0.15503-0.0274z" fill="#fcfcfc" style="font-variant-caps:normal;font-variant-east-asian:normal;font-variant-ligatures:normal;font-variant-numeric:normal;shape-inside:url(#rect1071);white-space:pre"/>
  <g fill="none" stroke-linecap="round" stroke-linejoin="round">
   <circle transform="rotate(-9.5026)" cx="67.222" cy="239.35" r=".61349" stroke="#fff" stroke-width=".34507"/>
   <ellipse cx="106.42" cy="225.38" rx="1.097" ry=".87343" stroke-width=".0049083"/>
   <path d="m100.9 232.64-0.83965 0.40419-0.97163 0.29456-1.1293 0.21804-1.1217 0.10199-0.98315-0.0556-0.9432-0.14282-1.0575-0.27172-1.0999-0.43921-0.75294-0.43377-0.85275-0.57919-0.57828-0.4852-0.7927-0.81384-0.62-0.84894-0.49712-0.85212-0.35588-0.78027-0.28223-0.81437-0.18309-0.83794-0.09916-0.67593-0.03338-0.52043-0.0058-0.79151 0.07383-0.67097 0.1056-0.69217 0.22283-0.78655 0.23395-0.67895 0.27079-0.6395 0.44352-0.73038 0.4851-0.71907 0.60615-0.71088 0.57384-0.5529 0.65771-0.5243 0.8206-0.52837 0.79495-0.3931 0.95497-0.36663 0.7652-0.2077 1.1188-0.18446 1.0117-0.0361 0.61434 0.0306 0.90601 0.11378 0.87387 0.18662 0.78824 0.26207 0.8216 0.35721 0.80702 0.45404 0.71827 0.48634 0.70215 0.65638 0.68645 0.70116 0.62767 0.85432 0.496 0.83367 0.31443 0.75499 0.29326 0.80851 0.11146 0.57661" stroke="#fff" stroke-width=".354"/>
  </g>
 </g>
</svg>
